<svg width="304" height="290" viewBox="0 0 304 290" fill="none" xmlns="http://www.w3.org/2000/svg">
<mask id="mask0_3118_2936" style="mask-type:alpha" maskUnits="userSpaceOnUse" x="0" y="0" width="304" height="290">
<path d="M303.521 144.945C303.521 159.95 276.419 170.482 272.021 184.024C267.465 198.054 283.04 222.482 274.543 234.161C265.956 245.96 237.859 238.648 226.06 247.234C214.381 255.732 212.695 284.761 198.666 289.317C185.13 293.715 166.766 271.358 151.761 271.358C136.755 271.358 118.391 293.708 104.855 289.317C90.8257 284.761 89.1401 255.732 77.4613 247.234C65.6622 238.648 37.5647 245.96 28.9783 234.161C20.4806 222.482 36.0565 198.054 31.5003 184.024C27.1026 170.489 0 159.95 0 144.945C0 129.939 27.1026 119.408 31.5003 105.866C36.0565 91.836 20.4806 67.4075 28.9783 55.7288C37.5647 43.9296 65.6622 51.2423 77.4613 42.6559C89.1401 34.1582 90.8257 5.12926 104.855 0.573085C118.391 -3.82467 136.755 18.5316 151.761 18.5316C166.766 18.5316 185.13 -3.81833 198.666 0.573085C212.695 5.12926 214.381 34.1582 226.06 42.6559C237.859 51.2423 265.956 43.9296 274.543 55.7288C283.04 67.4075 267.465 91.836 272.021 105.866C276.577 119.895 303.521 129.939 303.521 144.945Z" fill="url(#paint0_linear_3118_2936)"/>
</mask>
<g mask="url(#mask0_3118_2936)">
<path d="M303.521 144.945C303.521 159.95 276.419 170.482 272.021 184.024C267.465 198.054 283.04 222.482 274.543 234.161C265.956 245.96 237.859 238.648 226.06 247.234C214.381 255.732 212.695 284.761 198.666 289.317C185.13 293.715 166.766 271.358 151.761 271.358C136.755 271.358 118.391 293.708 104.855 289.317C90.8257 284.761 89.1401 255.732 77.4613 247.234C65.6622 238.648 37.5647 245.96 28.9783 234.161C20.4806 222.482 36.0565 198.054 31.5003 184.024C27.1026 170.489 0 159.95 0 144.945C0 129.939 27.1026 119.408 31.5003 105.866C36.0565 91.836 20.4806 67.4075 28.9783 55.7288C37.5647 43.9296 65.6622 51.2423 77.4613 42.6559C89.1401 34.1582 90.8257 5.12926 104.855 0.573085C118.391 -3.82467 136.755 18.5316 151.761 18.5316C166.766 18.5316 185.13 -3.81833 198.666 0.573085C212.695 5.12926 214.381 34.1582 226.06 42.6559C237.859 51.2423 265.956 43.9296 274.543 55.7288C283.04 67.4075 267.465 91.836 272.021 105.866C276.577 119.895 303.521 129.939 303.521 144.945Z" fill="url(#paint1_linear_3118_2936)"/>
<path d="M107.82 153.034L135.934 181.148L200.194 116.888" stroke="white" stroke-width="21.7216" stroke-linecap="round" stroke-linejoin="round"/>
</g>
<defs>
<linearGradient id="paint0_linear_3118_2936" x1="0" y1="144.945" x2="303.521" y2="144.945" gradientUnits="userSpaceOnUse">
<stop stop-color="#FFBA2A" stop-opacity="0.87"/>
<stop offset="0.5" stop-color="#FE5715"/>
<stop offset="1" stop-color="#5BC0EB"/>
</linearGradient>
<linearGradient id="paint1_linear_3118_2936" x1="-24" y1="72" x2="292.5" y2="235" gradientUnits="userSpaceOnUse">
<stop offset="0.0432692" stop-color="#FE5715"/>
<stop offset="0.591346" stop-color="#FFBA2A"/>
<stop offset="1" stop-color="#5BC0EB"/>
</linearGradient>
</defs>
</svg>
